HIERARCHY
ROOT Hips
{
    OFFSET 0.000 93.594 0.000
    CHANNELS 6 Xposition Yposition Zposition Yrotation Xrotation Zrotation
    JOINT RightHip
    {
        OFFSET -9.500 -1.594 0.000
        CHANNELS 3 Yrotation Xrotation Zrotation
        JOINT RightKnee
        {
            OFFSET 0.000 -42.000 0.000
            CHANNELS 3 Yrotation Xrotation Zrotation
            JOINT RightAnkle
            {
                OFFSET 0.000 -42.000 0.000
                CHANNELS 3 Yrotation Xrotation Zrotation
                End Site
                {
                    OFFSET 0.000 -8.000 17.500
                }
            }
        }
    }
    JOINT LeftHip
    {
        OFFSET 9.500 -1.594 0.000
        CHANNELS 3 Yrotation Xrotation Zrotation
        JOINT LeftKnee
        {
            OFFSET 0.000 -42.000 0.000
            CHANNELS 3 Yrotation Xrotation Zrotation
            JOINT LeftAnkle
            {
                OFFSET 0.000 -42.000 0.000
                CHANNELS 3 Yrotation Xrotation Zrotation
                End Site
                {
                    OFFSET 0.000 -8.000 17.500
                }
            }
        }
    }
    JOINT Chest
    {
        OFFSET 0.000 14.348 0.000
        CHANNELS 3 Yrotation Xrotation Zrotation
        JOINT Chest2
        {
            OFFSET 0.000 9.746 0.000
            CHANNELS 3 Yrotation Xrotation Zrotation
            JOINT Chest3
            {
                OFFSET 0.000 10.149 0.000
                CHANNELS 3 Yrotation Xrotation Zrotation
                JOINT Chest4
                {
                    OFFSET 0.000 9.746 0.000
                    CHANNELS 3 Yrotation Xrotation Zrotation
                    JOINT Neck
                    {
                        OFFSET 0.000 10.417 0.000
                        CHANNELS 3 Yrotation Xrotation Zrotation
                        JOINT Head
                        {
                            OFFSET 0.000 9.000 0.000
                            CHANNELS 3 Yrotation Xrotation Zrotation
                            End Site
                            {
                                OFFSET 0.000 16.000 0.000
                            }
                        }
                    }
                    JOINT RightCollar
                    {
                        OFFSET -3.200 6.945 0.000
                        CHANNELS 3 Yrotation Xrotation Zrotation
                        JOINT RightShoulder
                        {
                            OFFSET -12.800 0.000 0.000
                            CHANNELS 3 Yrotation Xrotation Zrotation
                            JOINT RightElbow
                            {
OFFSET -0 -27 0.000
						CHANNELS 3 Xrotation Yrotation Zrotation
                                JOINT RightWrist
                                {
OFFSET -0 -26 0.000
						CHANNELS 3 Xrotation Yrotation Zrotation
                                    JOINT RightFinger0
                                    {
OFFSET -0.196 -2.56 3.210
						CHANNELS 3 Xrotation Yrotation Zrotation
                                        JOINT RightFinger01
                                        {
OFFSET -0 -3.788 0.000
						CHANNELS 3 Xrotation Yrotation Zrotation
                                            JOINT RightFinger0Nub
                                            {
OFFSET -0 -2.631 0.000
						CHANNELS 3 Xrotation Yrotation Zrotation
                                                End Site
                                                {
OFFSET 0 -2.256 0
                                                }
                                            }
                                        }
                                    }
                                    JOINT RightFinger1
                                    {
OFFSET -0.523 -3.316 2.035
						CHANNELS 3 Xrotation Yrotation Zrotation
                                        JOINT RightFinger11
                                        {
OFFSET 0.094 -5.366 1.028
						CHANNELS 3 Xrotation Yrotation Zrotation
                                            JOINT RightFinger12
                                            {
OFFSET -0 -3.723 0.000
						CHANNELS 3 Xrotation Yrotation Zrotation
                                                JOINT RightFinger1Nub
                                                {
OFFSET -0 -2.111 0.000
						CHANNELS 3 Xrotation Yrotation Zrotation
                                                    End Site
                                                    {
OFFSET 0 -1.857 0
                                                    }
                                                }
                                            }
                                        }
                                    }
                                    JOINT RightFinger2
                                    {
OFFSET -0.532 -3.479 0.778
						CHANNELS 3 Xrotation Yrotation Zrotation
                                        JOINT RightFinger21
                                        {
OFFSET 0.086 -5.322 0.323
						CHANNELS 3 Xrotation Yrotation Zrotation
                                            JOINT RightFinger22
                                            {
OFFSET -0 -4.062 0.000
						CHANNELS 3 Xrotation Yrotation Zrotation
                                                JOINT RightFinger2Nub
                                                {
OFFSET -0 -2.547 0.000
						CHANNELS 3 Xrotation Yrotation Zrotation
                                                    End Site
                                                    {
OFFSET 0 -2.031 0
                                                    }
                                                }
                                            }
                                        }
                                    }
                                    JOINT RightFinger3
                                    {
OFFSET -0.553 -3.461 -0.133
						CHANNELS 3 Xrotation Yrotation Zrotation
                                        JOINT RightFinger31
                                        {
OFFSET 0.023 -4.767 -0.493
						CHANNELS 3 Xrotation Yrotation Zrotation
                                            JOINT RightFinger32
                                            {
OFFSET -0 -3.541 0.000
						CHANNELS 3 Xrotation Yrotation Zrotation
                                                JOINT RightFinger3Nub
                                                {
OFFSET -0 -2.456 0.000
						CHANNELS 3 Xrotation Yrotation Zrotation
                                                    End Site
                                                    {
OFFSET 0 -1.91 0
                                                    }
                                                }
                                            }
                                        }
                                    }
                                    JOINT RightFinger4
                                    {
OFFSET -0.483 -3.251 -1.236
						CHANNELS 3 Xrotation Yrotation Zrotation
                                        JOINT RightFinger41
                                        {
OFFSET 0.023 -4.259 -1.122
						CHANNELS 3 Xrotation Yrotation Zrotation
                                            JOINT RightFinger42
                                            {
OFFSET -0 -2.835 0.000
						CHANNELS 3 Xrotation Yrotation Zrotation
                                                JOINT RightFinger4Nub
                                                {
OFFSET -0 -1.792 0.000
						CHANNELS 3 Xrotation Yrotation Zrotation
                                                    End Site
                                                    {
OFFSET 0 -1.692 0
                                                    }
                                                }
                                            }
                                        }
                                    }
                                }
                            }
                        }
                    }
                    JOINT LeftCollar
                    {
                        OFFSET 3.200 6.945 0.000
                        CHANNELS 3 Yrotation Xrotation Zrotation
                        JOINT LeftShoulder
                        {
                            OFFSET 12.800 0.000 0.000
                            CHANNELS 3 Yrotation Xrotation Zrotation
                            JOINT LeftElbow
                            {
OFFSET -0 -27 0.000
						CHANNELS 3 Xrotation Yrotation Zrotation
                                JOINT LeftWrist
                                {
OFFSET -0 -26 0.000
						CHANNELS 3 Xrotation Yrotation Zrotation
                                    JOINT LeftFinger0
                                    {
OFFSET -0.196 -2.56 3.210
						CHANNELS 3 Xrotation Yrotation Zrotation
                                        JOINT LeftFinger01
                                        {
OFFSET -0 -3.788 0.000
						CHANNELS 3 Xrotation Yrotation Zrotation
                                            JOINT LeftFinger0Nub
                                            {
OFFSET -0 -2.631 0.000
						CHANNELS 3 Xrotation Yrotation Zrotation
                                                End Site
                                                {
OFFSET 0 -2.256 0
                                                }
                                            }
                                        }
                                    }
                                    JOINT LeftFinger1
                                    {
OFFSET -0.523 -3.316 2.035
						CHANNELS 3 Xrotation Yrotation Zrotation
                                        JOINT LeftFinger11
                                        {
OFFSET 0.094 -5.366 1.028
						CHANNELS 3 Xrotation Yrotation Zrotation
                                            JOINT LeftFinger12
                                            {
OFFSET -0 -3.723 0.000
						CHANNELS 3 Xrotation Yrotation Zrotation
                                                JOINT LeftFinger1Nub
                                                {
OFFSET -0 -2.111 0.000
						CHANNELS 3 Xrotation Yrotation Zrotation
                                                    End Site
                                                    {
OFFSET 0 -1.857 0
                                                    }
                                                }
                                            }
                                        }
                                    }
                                    JOINT LeftFinger2
                                    {
OFFSET -0.532 -3.479 0.778
						CHANNELS 3 Xrotation Yrotation Zrotation
                                        JOINT LeftFinger21
                                        {
OFFSET 0.086 -5.322 0.323
						CHANNELS 3 Xrotation Yrotation Zrotation
                                            JOINT LeftFinger22
                                            {
OFFSET -0 -4.062 0.000
						CHANNELS 3 Xrotation Yrotation Zrotation
                                                JOINT LeftFinger2Nub
                                                {
OFFSET -0 -2.547 0.000
						CHANNELS 3 Xrotation Yrotation Zrotation
                                                    End Site
                                                    {
OFFSET 0 -2.031 0
                                                    }
                                                }
                                            }
                                        }
                                    }
                                    JOINT LeftFinger3
                                    {
OFFSET -0.553 -3.461 -0.133
						CHANNELS 3 Xrotation Yrotation Zrotation
                                        JOINT LeftFinger31
                                        {
OFFSET 0.023 -4.767 -0.493
						CHANNELS 3 Xrotation Yrotation Zrotation
                                            JOINT LeftFinger32
                                            {
OFFSET -0 -3.541 0.000
						CHANNELS 3 Xrotation Yrotation Zrotation
                                                JOINT LeftFinger3Nub
                                                {
OFFSET -0 -2.456 0.000
						CHANNELS 3 Xrotation Yrotation Zrotation
                                                    End Site
                                                    {
OFFSET 0 -1.91 0
                                                    }
                                                }
                                            }
                                        }
                                    }
                                    JOINT LeftFinger4
                                    {
OFFSET -0.483 -3.251 -1.236
						CHANNELS 3 Xrotation Yrotation Zrotation
                                        JOINT LeftFinger41
                                        {
OFFSET 0.023 -4.259 -1.122
						CHANNELS 3 Xrotation Yrotation Zrotation
                                            JOINT LeftFinger42
                                            {
OFFSET -0 -2.835 0.000
						CHANNELS 3 Xrotation Yrotation Zrotation
                                                JOINT LeftFinger4Nub
                                                {
OFFSET -0 -1.792 0.000
						CHANNELS 3 Xrotation Yrotation Zrotation
                                                    End Site
                                                    {
OFFSET 0 -1.692 0
                                                    }
                                                }
                                            }
                                        }
                                    }
                                }
                            }
                        }
                    }
                }
            }
        }
    }
}
MOTION

Frames: 11
Frame Time: 0.017
-226.83 91.89 74.19 97.13 2.82 -4.74 -12.90 -8.46 -3.07 0.00 21.88 0.00 -31.72 -8.63 12.76 -15.58 -21.06 15.55 0.00 28.87 0.00 1.04 -10.06 -9.39 -10.97 -1.09 2.40 -2.76 -0.22 0.58 -4.54 -0.26 0.96 0.40 2.95 -0.45 -2.18 47.14 -5.38 -5.08 34.28 -9.43 8.85 -1.53 -4.77 -6.05 -4.76 -19.61 -62.65 -17.77 62.22 -16.02 14.6 -2.62 -48.59 -0 27.55 13.36 -0 -2.27 -6.18 -0 0.00 0 -0 0.00 -15 -0 5.34 0 -0 15.88 0 -0 7.94 0 -0 0.00 0 -0 0.97 0 -0 0.97 0 -0 0.97 0 -0 0.00 15 -0 21.03 0 -0 21.03 0 -0 21.03 0 -0 0.00 25 -0 28.24 0 -0 28.24 0 -0 28.24 -12.18 2.55 1.25 21.35 -18.90 17.81 15.16 54.64 -92.30 -5.57 37.64 9.96 -22.57 0 -38.69 -35.09 0 5.52 13.43 0 0.00 0.00 0 0.00 -15.00 0 -6.05 0.00 0 -14.40 0.00 0 -7.20 0.00 0 0.00 0.00 0 -19.53 0.00 0 -19.53 0.00 0 -19.53 0.00 0 0.00 15.00 0 -34.30 0.00 0 -34.30 0.00 0 -34.30 0.00 0 0.00 25.00 0 -32.35 0.00 0 -32.35 0.00 0 -32.35 
-226.72 91.81 74.22 97.09 2.83 -4.77 -12.85 -8.59 -3.04 -0.00 22.29 0.00 -31.76 -8.88 12.88 -15.62 -21.26 15.62 -0.00 29.44 -0.00 0.93 -10.43 -9.43 -10.93 -1.11 2.44 -2.75 -0.22 0.58 -4.53 -0.26 0.97 0.40 2.95 -0.45 -2.18 47.16 -5.37 -5.13 34.28 -9.45 8.86 -1.55 -4.76 -6.05 -4.76 -19.66 -62.6 -17.77 62.20 -16.18 14.53 -2.59 -48.58 -0 27.56 13.37 -0 -2.26 -6.13 -0 0.00 0 -0 0.00 -15 -0 5.32 0 -0 16.03 0 -0 8.02 0 -0 0.00 0 -0 1.02 0 -0 1.02 0 -0 1.02 0 -0 0.00 15 -0 21.20 0 -0 21.20 0 -0 21.20 0 -0 0.00 25 -0 28.41 0 -0 28.41 0 -0 28.41 -12.20 2.56 1.21 21.27 -18.91 17.83 15.00 54.76 -92.21 -5.99 37.64 9.82 -22.20 0 -39.38 -34.36 0 4.83 13.45 0 0.00 0.00 0 0.00 -15.00 0 -5.98 0.00 0 -14.97 0.00 0 -7.49 0.00 0 0.00 0.00 0 -19.61 0.00 0 -19.61 0.00 0 -19.61 0.00 0 0.00 15.00 0 -34.71 0.00 0 -34.71 0.00 0 -34.71 0.00 0 0.00 25.00 0 -32.83 0.00 0 -32.83 0.00 0 -32.83 
-226.61 91.75 74.24 97.09 2.83 -4.77 -12.85 -8.70 -3.04 -0.00 22.68 -0.00 -31.78 -9.11 13.02 -15.64 -21.38 15.66 0.00 29.83 0.00 0.91 -10.70 -9.45 -10.93 -1.11 2.44 -2.75 -0.22 0.58 -4.53 -0.26 0.97 0.40 2.95 -0.45 -2.18 47.16 -5.37 -5.13 34.28 -9.45 8.86 -1.55 -4.76 -6.05 -4.76 -19.66 -62.6 -17.77 62.20 -16.18 14.53 -2.59 -48.58 -0 27.56 13.37 -0 -2.26 -6.13 -0 0.00 0 -0 0.00 -15 -0 5.32 0 -0 16.03 0 -0 8.02 0 -0 0.00 0 -0 1.02 0 -0 1.02 0 -0 1.02 0 -0 0.00 15 -0 21.20 0 -0 21.20 0 -0 21.20 0 -0 0.00 25 -0 28.41 0 -0 28.41 0 -0 28.41 -12.20 2.56 1.21 21.27 -18.91 17.83 12.53 54.9 -91.69 -2.12 38.94 9.79 -25.13 0 -31.16 -40.22 0 13.06 13.98 0 0.00 0.00 0 0.00 -15.00 0 -6.01 0.00 0 -14.63 0.00 0 -7.32 0.00 0 0.00 0.00 0 -18.83 0.00 0 -18.83 0.00 0 -18.83 0.00 0 0.00 15.00 0 -31.42 0.00 0 -31.42 0.00 0 -31.42 0.00 0 0.00 25.00 0 -26.85 0.00 0 -26.85 0.00 0 -26.85 
-226.51 91.71 74.26 97.09 2.83 -4.77 -12.85 -8.79 -3.04 -0.00 22.99 -0.00 -31.79 -9.31 13.14 -15.66 -21.46 15.69 0.00 30.14 0.00 0.90 -10.92 -9.48 -10.93 -1.11 2.44 -2.75 -0.22 0.58 -4.53 -0.26 0.97 0.40 2.95 -0.45 -2.18 47.16 -5.37 -5.13 34.28 -9.45 8.86 -1.55 -4.76 -6.05 -4.76 -19.66 -62.6 -17.77 62.20 -16.18 14.53 -2.59 -48.58 -0 27.56 13.37 -0 -2.26 -6.13 -0 0.00 0 -0 0.00 -15 -0 5.32 0 -0 16.03 0 -0 8.02 0 -0 0.00 0 -0 1.02 0 -0 1.02 0 -0 1.02 0 -0 0.00 15 -0 21.20 0 -0 21.20 0 -0 21.20 0 -0 0.00 25 -0 28.41 0 -0 28.41 0 -0 28.41 -12.20 2.56 1.21 21.27 -18.91 17.83 12.49 54.85 -91.65 -2.09 38.96 9.72 -25.14 0 -31.17 -40.23 0 13.05 14.02 0 0.00 0.00 0 0.00 -15.00 0 -6.02 0.00 0 -14.61 0.00 0 -7.31 0.00 0 0.00 0.00 0 -18.83 0.00 0 -18.83 0.00 0 -18.83 0.00 0 0.00 15.00 0 -31.51 0.00 0 -31.51 0.00 0 -31.51 0.00 0 0.00 25.00 0 -27.00 0.00 0 -27.00 0.00 0 -27.00 
-226.44 91.69 74.33 98.46 2.23 -5.44 -12.79 -7.23 -2.39 -0.00 22.18 0.00 -33.18 -9.08 13.46 -16.02 -21.25 16.28 0.00 30.65 -0.00 0.07 -11.05 -9.52 -11.74 -0.60 2.75 -2.95 -0.10 0.67 -4.85 -0.05 1.11 0.40 2.95 -0.45 -2.18 47.16 -5.37 -5.13 34.28 -9.45 10.41 -3.31 -2.73 -7.75 -4.80 -21.02 -63.31 -11.48 59.46 -17.32 13.99 0.27 -48.46 -0 26.65 13.62 -0 -3.18 -6.55 -0 0.00 0 -0 0.00 -15 -0 7.50 0 -0 19.48 0 -0 9.74 0 -0 0.00 0 -0 2.48 0 -0 2.48 0 -0 2.48 0 -0 0.00 15 -0 18.87 0 -0 18.87 0 -0 18.87 0 -0 0.00 25 -0 24.85 0 -0 24.85 0 -0 24.85 -10.13 0.70 3.10 20.70 -18.30 18.05 15.50 52.83 -93.78 -1.41 38.78 9.12 -25.30 0 -31.13 -40.56 0 13.08 14.05 0 0.00 0.00 0 0.00 -15.00 0 -5.51 0.00 0 -14.67 0.00 0 -7.34 0.00 0 0.00 0.00 0 -18.60 0.00 0 -18.60 0.00 0 -18.60 0.00 0 0.00 15.00 0 -31.35 0.00 0 -31.35 0.00 0 -31.35 0.00 0 0.00 25.00 0 -26.92 0.00 0 -26.92 0.00 0 -26.92 
-226.39 91.67 74.38 98.42 2.29 -5.43 -12.79 -7.37 -2.35 0.00 22.38 0.00 -33.17 -9.22 13.50 -16.01 -21.34 16.34 -0.00 30.77 -0.00 -0.11 -11.20 -9.55 -11.72 -0.65 2.76 -2.95 -0.11 0.67 -4.84 -0.07 1.11 0.40 2.95 -0.45 -2.18 47.16 -5.37 -5.13 34.28 -9.45 10.40 -3.22 -2.75 -7.77 -4.80 -20.98 -63.32 -11.63 59.45 -17.32 14.06 0.17 -48.49 -0 26.66 13.56 -0 -3.16 -6.55 -0 0.00 0 -0 0.00 -15 -0 7.47 0 -0 19.51 0 -0 9.75 0 -0 0.00 0 -0 2.45 0 -0 2.45 0 -0 2.45 0 -0 0.00 15 -0 18.89 0 -0 18.89 0 -0 18.89 0 -0 0.00 25 -0 24.90 0 -0 24.90 0 -0 24.90 -10.19 0.77 3.09 20.68 -18.32 18.02 15.49 52.9 -93.74 -1.27 38.73 8.97 -25.32 0 -31.12 -40.60 0 13.09 14.10 0 0.00 0.00 0 0.00 -15.00 0 -5.42 0.00 0 -14.71 0.00 0 -7.35 0.00 0 0.00 0.00 0 -18.58 0.00 0 -18.58 0.00 0 -18.58 0.00 0 0.00 15.00 0 -31.41 0.00 0 -31.41 0.00 0 -31.41 0.00 0 0.00 25.00 0 -27.05 0.00 0 -27.05 0.00 0 -27.05 
-226.28 91.66 74.36 98.41 2.34 -5.43 -12.79 -7.39 -2.36 0.00 22.46 0.00 -33.17 -9.31 13.59 -16.00 -21.41 16.35 -0.00 30.95 0.00 -0.05 -11.33 -9.53 -11.14 -2.17 3.84 -2.81 -0.44 0.91 -4.63 -0.55 1.52 0.36 3.02 -0.47 -2.31 48.97 -5.23 -7.72 34.50 -10.35 9.33 -0.85 -4.27 -7.78 -4.79 -20.94 -63.34 -11.78 59.47 -17.59 13.87 -0.15 -48.42 -0 26.86 13.7 -0 -2.96 -6.57 -0 0.00 0 -0 0.00 -15 -0 7.86 0 -0 19.49 0 -0 9.74 0 -0 0.00 0 -0 2.65 0 -0 2.65 0 -0 2.65 0 -0 0.00 15 -0 19.06 0 -0 19.06 0 -0 19.06 0 -0 0.00 25 -0 24.91 0 -0 24.91 0 -0 24.91 -11.41 2.46 0.86 20.69 -18.35 17.97 15.51 52.91 -93.73 -1.22 38.7 8.87 -25.34 0 -31.15 -40.63 0 13.07 14.14 0 0.00 0.00 0 0.00 -15.00 0 -5.37 0.00 0 -14.70 0.00 0 -7.35 0.00 0 0.00 0.00 0 -18.57 0.00 0 -18.57 0.00 0 -18.57 0.00 0 0.00 15.00 0 -31.47 0.00 0 -31.47 0.00 0 -31.47 0.00 0 0.00 25.00 0 -27.19 0.00 0 -27.19 0.00 0 -27.19 
-226.19 91.64 74.34 98.42 2.34 -5.45 -12.83 -7.37 -2.36 -0.00 22.52 -0.00 -33.15 -9.38 13.64 -16.01 -21.44 16.35 0.00 31.11 -0.00 -0.02 -11.44 -9.51 -11.17 -2.11 3.84 -2.81 -0.42 0.91 -4.64 -0.53 1.52 0.36 3.02 -0.47 -2.31 48.89 -5.25 -7.66 34.49 -10.35 9.35 -0.84 -4.29 -7.79 -4.81 -20.9 -63.34 -11.93 59.49 -17.61 13.85 -0.19 -48.42 -0 26.88 13.7 -0 -2.94 -6.59 -0 0.00 0 -0 0.00 -15 -0 7.95 0 -0 19.48 0 -0 9.74 0 -0 0.00 0 -0 2.68 0 -0 2.68 0 -0 2.68 0 -0 0.00 15 -0 19.08 0 -0 19.08 0 -0 19.08 0 -0 0.00 25 -0 24.91 0 -0 24.91 0 -0 24.91 -11.42 2.46 0.88 20.69 -18.38 17.93 15.56 52.93 -93.76 -1.23 38.72 8.82 -25.33 0 -31.19 -40.62 0 13.02 14.19 0 0.00 0.00 0 0.00 -15.00 0 -5.37 0.00 0 -14.66 0.00 0 -7.33 0.00 0 0.00 0.00 0 -18.60 0.00 0 -18.60 0.00 0 -18.60 0.00 0 0.00 15.00 0 -31.55 0.00 0 -31.55 0.00 0 -31.55 0.00 0 0.00 25.00 0 -27.35 0.00 0 -27.35 0.00 0 -27.35 
-226.15 91.64 74.32 98.41 2.35 -5.46 -12.85 -7.37 -2.37 -0.00 22.56 -0.00 -33.12 -9.42 13.68 -16.01 -21.48 16.36 -0.00 31.20 0.00 -0.02 -11.50 -9.50 -11.24 -1.94 3.81 -2.83 -0.38 0.91 -4.67 -0.47 1.51 0.37 3.01 -0.47 -2.32 48.67 -5.29 -7.52 34.44 -10.35 9.43 -1.00 -4.30 -7.76 -4.84 -20.85 -63.41 -11.95 59.46 -17.7 13.72 -0.23 -48.43 -0 26.89 13.67 -0 -2.93 -6.43 -0 0.00 0 -0 0.00 -15 -0 7.89 0 -0 19.54 0 -0 9.77 0 -0 0.00 0 -0 2.70 0 -0 2.70 0 -0 2.70 0 -0 0.00 15 -0 19.10 0 -0 19.10 0 -0 19.10 0 -0 0.00 25 -0 24.91 0 -0 24.91 0 -0 24.91 -11.35 2.32 0.96 20.66 -18.42 17.88 15.47 53.04 -93.69 -1.27 38.83 8.85 -25.31 0 -31.24 -40.58 0 12.97 14.22 0 0.00 0.00 0 0.00 -15.00 0 -5.47 0.00 0 -14.55 0.00 0 -7.27 0.00 0 0.00 0.00 0 -18.64 0.00 0 -18.64 0.00 0 -18.64 0.00 0 0.00 15.00 0 -31.66 0.00 0 -31.66 0.00 0 -31.66 0.00 0 0.00 25.00 0 -27.51 0.00 0 -27.51 0.00 0 -27.51 
-226.11 91.64 74.30 98.39 2.39 -5.46 -12.84 -7.38 -2.37 0.00 22.54 0.00 -33.12 -9.42 13.70 -15.98 -21.51 16.36 0.00 31.25 0.00 -0.19 -11.61 -9.48 -11.27 -1.88 3.80 -2.84 -0.37 0.91 -4.68 -0.45 1.51 0.37 3.01 -0.47 -2.32 48.56 -5.31 -7.44 34.43 -10.35 9.47 -1.02 -4.33 -7.71 -4.86 -20.8 -63.49 -11.98 59.41 -17.77 13.61 -0.29 -48.44 -0 26.90 13.66 -0 -2.92 -6.31 -0 0.00 0 -0 0.00 -15 -0 7.86 0 -0 19.58 0 -0 9.79 0 -0 0.00 0 -0 2.72 0 -0 2.72 0 -0 2.72 0 -0 0.00 15 -0 19.13 0 -0 19.13 0 -0 19.13 0 -0 0.00 25 -0 24.91 0 -0 24.91 0 -0 24.91 -11.34 2.31 0.99 20.62 -18.45 17.82 15.36 53.18 -93.61 -1.35 38.93 8.91 -25.28 0 -31.28 -40.52 0 12.93 14.25 0 0.00 0.00 0 0.00 -15.00 0 -5.57 0.00 0 -14.44 0.00 0 -7.22 0.00 0 0.00 0.00 0 -18.70 0.00 0 -18.70 0.00 0 -18.70 0.00 0 0.00 15.00 0 -31.77 0.00 0 -31.77 0.00 0 -31.77 0.00 0 0.00 25.00 0 -27.68 0.00 0 -27.68 0.00 0 -27.68 
-226.09 91.64 74.29 98.35 2.43 -5.46 -12.83 -7.44 -2.38 -0.00 22.57 0.00 -33.10 -9.44 13.72 -15.97 -21.56 16.36 -0.00 31.29 0.00 -0.08 -11.61 -9.49 -11.26 -1.82 3.78 -2.83 -0.36 0.90 -4.67 -0.43 1.50 0.37 3.01 -0.47 -2.32 48.45 -5.32 -7.37 34.39 -10.33 9.46 -1.07 -4.35 -7.66 -4.87 -20.75 -63.48 -12.15 59.41 -17.74 13.66 -0.30 -48.44 -0 26.90 13.65 -0 -2.92 -6.39 -0 0.00 0 -0 0.00 -15 -0 7.79 0 -0 19.59 0 -0 9.80 0 -0 0.00 0 -0 2.73 0 -0 2.73 0 -0 2.73 0 -0 0.00 15 -0 19.15 0 -0 19.15 0 -0 19.15 0 -0 0.00 25 -0 24.93 0 -0 24.93 0 -0 24.93 -11.36 2.29 1.03 20.57 -18.46 17.77 15.40 53.27 -93.62 -1.51 38.92 8.96 -25.25 0 -31.32 -40.45 0 12.90 14.25 0 0.00 0.00 0 0.00 -15.00 0 -5.54 0.00 0 -14.70 0.00 0 -7.35 0.00 0 0.00 0.00 0 -18.76 0.00 0 -18.76 0.00 0 -18.76 0.00 0 0.00 15.00 0 -31.91 0.00 0 -31.91 0.00 0 -31.91 0.00 0 0.00 25.00 0 -27.85 0.00 0 -27.85 0.00 0 -27.85 
